<svg xmlns="http://www.w3.org/2000/svg" version="1.1" width="280" height="240" viewBox="0 0 280 240" preserveAspectRatio="xMidYMid meet">
	<g transform="scale(0.5)">
		<path d="M0 0 C1.18335937 0.3815625 2.36671875 0.763125 3.5859375 1.15625 C6.4018443 2.07519395 9.20442859 3.02128971 12 4 C9.3191342 6.0696526 6.57962032 7.86815249 3.6875 9.625 C-9.24476298 18.28178488 -15.62571113 34.65938266 -20 49 C-20.32097656 50.04027344 -20.64195313 51.08054688 -20.97265625 52.15234375 C-26.14667257 72.00612728 -24.46676345 96.28639885 -16 115 C-15.50965718 116.55275227 -15.047635 118.11496849 -14.625 119.6875 C-12.19136752 128.01508615 -9.0411646 136.00846718 -4.11328125 143.18359375 C-3 145 -3 145 -2.17578125 147.18359375 C-0.47961554 151.24650232 1.81923706 154.88208612 4.125 158.625 C4.61202393 159.42099609 5.09904785 160.21699219 5.60083008 161.03710938 C9.02946372 166.58228764 12.65752817 171.86388427 16.63671875 177.03125 C18 179 18 179 18 181 C18.66 181 19.32 181 20 181 C21.59701626 182.92608011 23.08701548 184.85883082 24.5625 186.875 C32.31861288 197.22215041 40.93812154 206.52161055 50.8125 214.875 C52.05765685 215.93316419 53.30245065 216.99175573 54.546875 218.05078125 C55.14177734 218.55689941 55.73667969 219.06301758 56.34960938 219.58447266 C59.02372433 221.87804049 61.64530895 224.23003792 64.25390625 226.59765625 C66.37886379 228.30427763 68.65956185 229.60569642 71 231 C72.53083526 232.13243607 74.05089681 233.27951733 75.5625 234.4375 C80.9157094 238.36853524 86.49385042 241.83381025 92.1875 245.25 C93.03062744 245.75716553 93.87375488 246.26433105 94.74243164 246.78686523 C99.73209357 249.75246059 104.78221299 252.46180173 110 255 C111.15242187 255.5878125 112.30484375 256.175625 113.4921875 256.78125 C120.21239893 260.19567613 126.9297718 263.36818004 134 266 C137.91819264 267.46004119 141.82813786 268.9323022 145.71875 270.46484375 C155.00031308 274.1057722 164.25943975 276.86268282 174 279 C174.76828125 279.17273438 175.5365625 279.34546875 176.328125 279.5234375 C187.52607398 282.01588421 198.60434409 283.6470714 210.03515625 284.60546875 C214 285 214 285 217 286 C252.33829153 287.85783594 294.58401895 285.5546873 326.08056641 267.82910156 C328 267 328 267 331 268 C330.36384766 268.61875 330.36384766 268.61875 329.71484375 269.25 C326.59758932 272.31929667 323.59024991 275.42147468 320.75 278.75 C312.95039184 287.7508871 304.3970519 295.69408622 295 303 C293.56333984 304.12728516 293.56333984 304.12728516 292.09765625 305.27734375 C285.02406792 310.7149905 277.68394793 315.47420866 270 320 C268.89914062 320.65871094 267.79828125 321.31742187 266.6640625 321.99609375 C258.31333258 326.89760914 249.73288464 331.1065609 240.92431641 335.12011719 C239.20860838 335.904615 237.50024192 336.70512378 235.79296875 337.5078125 C231.07569598 339.71140565 226.40117292 341.66028514 221.42822266 343.20678711 C218.89380171 344.03469116 216.42017477 344.97429928 213.9296875 345.92578125 C208.24233987 348.00188122 202.54722607 349.40202404 196.625 350.625 C195.62057861 350.83737305 194.61615723 351.04974609 193.58129883 351.26855469 C186.4207914 352.76068854 179.26655563 354.13291424 172 355 C171.35015137 355.08540039 170.70030273 355.17080078 170.03076172 355.25878906 C161.62860965 356.25062339 153.19828978 356.24259295 144.75 356.25 C143.55263718 356.25151062 143.55263718 356.25151062 142.33108521 356.25305176 C129.33397635 356.24198997 116.78952217 355.44817644 104 353 C103.17274414 352.85014648 102.34548828 352.70029297 101.49316406 352.54589844 C91.89220749 350.79112523 82.69547062 348.4646391 73.4921875 345.21875 C70.10230498 344.03570375 66.69611275 343.00545407 63.25 342 C57.2204139 340.15375979 51.65368003 337.77892747 46 335 C45.40848145 334.71108887 44.81696289 334.42217773 44.20751953 334.12451172 C39.4482759 331.79505719 34.72005562 329.40768815 30 327 C29.00782471 326.49847412 29.00782471 326.49847412 27.99560547 325.98681641 C17.03996015 320.42881723 7.38562507 313.98776602 -2 306 C-2.64324219 305.52175781 -3.28648438 305.04351562 -3.94921875 304.55078125 C-16.02976689 295.42371177 -27.46653724 284.11031938 -36.4921875 271.9453125 C-37.96854378 269.94856157 -37.96854378 269.94856157 -39.8359375 268.20703125 C-42.77616118 265.20842768 -45.23838855 261.92275829 -47.75 258.5625 C-48.2749707 257.86108887 -48.79994141 257.15967773 -49.34082031 256.43701172 C-62 239.31421302 -62 239.31421302 -62 235 C-62.66 235 -63.32 235 -64 235 C-64.68835938 233.62328125 -64.68835938 233.62328125 -65.390625 232.21875 C-65.68614258 231.62787598 -65.98166016 231.03700195 -66.28613281 230.42822266 C-66.93183538 229.13649041 -67.57701277 227.84449551 -68.22167969 226.55224609 C-69.5527956 223.88530354 -70.88639049 221.22082849 -72.25 218.5703125 C-74.17291082 214.82965004 -75.79132997 211.08924845 -77.21875 207.1328125 C-78.09735494 204.73422101 -79.0438266 202.36870229 -80 200 C-80.33902344 199.15179688 -80.67804688 198.30359375 -81.02734375 197.4296875 C-81.61827476 195.95354658 -82.2134706 194.47909088 -82.81640625 193.0078125 C-84.74671623 188.13655905 -86.03728687 183.1871617 -87.25390625 178.09375 C-87.71279528 176.19092221 -88.19477525 174.29327451 -88.71484375 172.40625 C-93.65887197 154.23360572 -95.65654724 135.97706869 -95.46655273 117.18823242 C-95.43727574 114.03837234 -95.44608176 110.89017649 -95.45898438 107.74023438 C-95.4460421 95.79917481 -94.51625581 84.67776766 -92 73 C-91.48758412 70.33556835 -90.99541738 67.66767199 -90.5 65 C-89.54052489 60.24783531 -88.39354003 55.73247133 -86.72558594 51.18334961 C-86.02046005 49.06156601 -85.54689936 47.00020426 -85.11328125 44.80859375 C-82.775927 34.04286582 -78.70700781 22.06768059 -71 14 C-70.39414063 13.31808594 -69.78828125 12.63617188 -69.1640625 11.93359375 C-51.69024862 -6.81794961 -22.96658664 -7.81391913 0 0 Z " fill="#034A81" transform="translate(98,123)"/>
		<path d="M0 0 C0.92737976 -0.00394775 1.85475952 -0.00789551 2.8102417 -0.01196289 C17.16467616 -0.04050485 30.6913553 0.86729515 44.6875 4.3125 C43.86107878 8.60977685 41.83940681 10.29344972 38.6875 13.3125 C37.31694183 15.01231336 35.98501331 16.74379547 34.6875 18.5 C33.52541016 20.07007813 33.52541016 20.07007813 32.33984375 21.671875 C28.72397762 26.61830249 25.15366395 31.59790125 21.58081055 36.57543945 C17.38967179 42.39492351 13.05660271 48.0822455 8.61328125 53.7109375 C6.69134245 56.14003764 6.69134245 56.14003764 5.66796875 58.4140625 C4.4018655 60.86556122 2.66676074 62.39897116 0.6875 64.3125 C-7.12209112 73.60812668 -14.19549962 83.4859817 -21.3125 93.3125 C-19.38664063 93.35117188 -19.38664063 93.35117188 -17.421875 93.390625 C4.81862437 94.02497674 26.62753858 98.34894301 46.6875 108.3125 C47.863125 108.89 49.03875 109.4675 50.25 110.0625 C51.054375 110.475 51.85875 110.8875 52.6875 111.3125 C51.44544193 115.03867422 49.5764325 116.70541457 46.6875 119.3125 C46.0275 119.3125 45.3675 119.3125 44.6875 119.3125 C44.3471875 120.1478125 44.3471875 120.1478125 44 121 C42.31735026 123.96466859 40.12579047 125.928754 37.6875 128.3125 C35.91854397 130.08610671 34.14992972 131.86005436 32.3815918 133.63427734 C27.24335174 138.78886686 22.10256117 143.94090475 16.96031475 149.09149742 C13.85901003 152.19801859 10.75864783 155.30546851 7.66040039 158.41503906 C4.64831633 161.43805475 1.63373614 164.4585611 -1.38252831 167.47740555 C-2.52394635 168.62065633 -3.66449127 169.76477959 -4.80410194 170.909832 C-10.2985314 176.42946371 -15.78464606 181.9077922 -21.72892761 186.9503479 C-24.05105469 188.94778755 -26.17677306 191.11905071 -28.3125 193.3125 C-32.49057562 197.52861576 -36.78562069 201.47787543 -41.3125 205.3125 C-42.38317912 206.23525186 -43.45345875 207.15846737 -44.5234375 208.08203125 C-45.68195773 209.07591022 -46.84081305 210.06939872 -48 211.0625 C-48.54696533 211.53486084 -49.09393066 212.00722168 -49.6574707 212.49389648 C-52.73384519 215.11239633 -55.85434916 217.2438404 -59.3125 219.3125 C-59.6425 219.9725 -59.9725 220.6325 -60.3125 221.3125 C-62.71454556 222.5281694 -65.10443671 223.65984199 -67.5625 224.75 C-68.90224906 225.3501766 -70.24081774 225.95299587 -71.578125 226.55859375 C-72.17399414 226.82341553 -72.76986328 227.0882373 -73.38378906 227.36108398 C-75.42637323 228.32424977 -75.42637323 228.32424977 -77.65454102 229.8125 C-80.61319459 231.48219483 -83.27707237 232.26032814 -86.57421875 233.06640625 C-87.77626953 233.36353516 -88.97832031 233.66066406 -90.21679688 233.96679688 C-91.46525391 234.26650391 -92.71371094 234.56621094 -94 234.875 C-95.22912109 235.17857422 -96.45824219 235.48214844 -97.72460938 235.79492188 C-112.32017736 239.36791692 -125.88760292 241.54733638 -140.9375 241.5625 C-141.63280823 241.56350708 -142.32811646 241.56451416 -143.04449463 241.56555176 C-169.28199482 241.54015027 -194.45535865 238.12236741 -219.54296875 230.4609375 C-221.97285897 229.72063934 -224.41011642 229.00390884 -226.85546875 228.31640625 C-230.42916514 227.27862097 -233.92826592 226.11287268 -237.4375 224.875 C-238.61570312 224.46378906 -239.79390625 224.05257812 -241.0078125 223.62890625 C-244.02517453 222.42695471 -246.57192644 221.03541671 -249.3125 219.3125 C-250.92830784 218.62001092 -252.54493517 217.92928623 -254.16796875 217.25390625 C-263.90137058 212.98113787 -273.21135437 207.78435443 -282.3125 202.3125 C-283.10269531 201.85230469 -283.89289063 201.39210938 -284.70703125 200.91796875 C-290.18943881 197.70292199 -295.31988901 194.24522709 -300.3125 190.3125 C-297.22820274 189.28440091 -295.47540381 189.46232267 -292.32641602 189.93701172 C-264.75600784 194.09283339 -235.62648825 192.07413144 -212.1015625 175.78125 C-202.92959176 168.8337107 -192.72843023 159.93639534 -186.3125 150.3125 C-185.6525 150.3125 -184.9925 150.3125 -184.3125 150.3125 C-184.08820313 149.76851562 -183.86390625 149.22453125 -183.6328125 148.6640625 C-181.90868212 145.59327407 -179.60046546 143.21789264 -177.1875 140.6875 C-172.98260769 136.19706489 -169.06448427 131.58438215 -165.26953125 126.73828125 C-162.51567278 123.32481596 -159.55279774 120.11790353 -156.59765625 116.87890625 C-154.25547142 114.24845251 -152.02713274 111.55094153 -149.8125 108.8125 C-146.88617087 105.19403042 -143.88652464 101.68780316 -140.75 98.25 C-134.75838091 91.65505815 -129.31002815 84.74350375 -124.125 77.5 C-121.4228081 73.74316621 -118.62909023 70.54617547 -115.3125 67.3125 C-114.04754095 65.76208559 -112.79939138 64.19789731 -111.5625 62.625 C-108.02961063 58.14734549 -104.30905363 53.89872154 -100.46875 49.68359375 C-98.53716608 47.55955128 -96.63593182 45.41453539 -94.75 43.25 C-93.91082031 42.2909375 -93.91082031 42.2909375 -93.0546875 41.3125 C-91.82498151 39.90081958 -90.60161054 38.48360865 -89.3828125 37.0625 C-85.00622338 32.02175922 -80.41018437 27.61054761 -75.3125 23.3125 C-74.02058158 22.14611212 -72.72891698 20.97944305 -71.4375 19.8125 C-50.41269429 1.50322693 -26.73792126 0.08262099 0 0 Z " fill="#044A81" transform="translate(502.3125,157.6875)"/>
		<path d="M0 0 C1.175625 0.5775 2.35125 1.155 3.5625 1.75 C4.366875 2.1625 5.17125 2.575 6 3 C4.75794193 6.72617422 2.8889325 8.39291457 0 11 C-0.66 11 -1.32 11 -2 11 C-2.3403125 11.8353125 -2.3403125 11.8353125 -2.6875 12.6875 C-4.37014974 15.65216859 -6.56170953 17.616254 -9 20 C-10.76895603 21.77360671 -12.53757028 23.54755436 -14.3059082 25.32177734 C-19.44414826 30.47636686 -24.58493883 35.62840475 -29.72718525 40.77899742 C-32.82848997 43.88551859 -35.92885217 46.99296851 -39.02709961 50.10253906 C-42.03918367 53.12555475 -45.05376386 56.1460611 -48.07002831 59.16490555 C-49.21144635 60.30815633 -50.35199127 61.45227959 -51.49160194 62.597332 C-56.9860314 68.11696371 -62.47214606 73.5952922 -68.41642761 78.6378479 C-70.73855469 80.63528755 -72.86427306 82.80655071 -75 85 C-79.17807562 89.21611576 -83.47312069 93.16537543 -88 97 C-89.07067912 97.92275186 -90.14095875 98.84596737 -91.2109375 99.76953125 C-92.36945773 100.76341022 -93.52831305 101.75689872 -94.6875 102.75 C-95.23446533 103.22236084 -95.78143066 103.69472168 -96.3449707 104.18139648 C-99.42134519 106.79989633 -102.54184916 108.9313404 -106 111 C-106.33 111.66 -106.66 112.32 -107 113 C-109.40204556 114.2156694 -111.79193671 115.34734199 -114.25 116.4375 C-115.58974906 117.0376766 -116.92831774 117.64049587 -118.265625 118.24609375 C-118.86149414 118.51091553 -119.45736328 118.7757373 -120.07128906 119.04858398 C-122.11387323 120.01174977 -122.11387323 120.01174977 -124.34204102 121.5 C-127.30069459 123.16969483 -129.96457237 123.94782814 -133.26171875 124.75390625 C-134.46376953 125.05103516 -135.66582031 125.34816406 -136.90429688 125.65429688 C-138.15275391 125.95400391 -139.40121094 126.25371094 -140.6875 126.5625 C-141.91662109 126.86607422 -143.14574219 127.16964844 -144.41210938 127.48242188 C-159.00767736 131.05541692 -172.57510292 133.23483638 -187.625 133.25 C-188.32030823 133.25100708 -189.01561646 133.25201416 -189.73199463 133.25305176 C-215.96949482 133.22765027 -241.14285865 129.80986741 -266.23046875 122.1484375 C-268.66035897 121.40813934 -271.09761642 120.69140884 -273.54296875 120.00390625 C-277.11666514 118.96612097 -280.61576592 117.80037268 -284.125 116.5625 C-285.30320312 116.15128906 -286.48140625 115.74007812 -287.6953125 115.31640625 C-290.71169691 114.11484414 -293.25148036 112.70662797 -296 111 C-297.98451771 110.28856912 -299.98202112 109.61008664 -302 109 C-302 108.67 -302 108.34 -302 108 C-295.32748368 107.42247154 -288.73320718 106.93400062 -282.03515625 107.03125 C-279.38971178 106.99062897 -276.81092897 106.59858493 -274.1953125 106.22265625 C-269.81226177 105.77811196 -265.40004886 105.92720507 -261 106 C-261 105.34 -261 104.68 -261 104 C-259.98679687 103.75765625 -258.97359375 103.5153125 -257.9296875 103.265625 C-256.57797167 102.92769604 -255.22641757 102.58911976 -253.875 102.25 C-253.20984375 102.09273438 -252.5446875 101.93546875 -251.859375 101.7734375 C-247.22382672 100.59182716 -243.94204138 98.79775437 -240 96 C-238.39474262 95.2283409 -236.76893475 94.4979105 -235.125 93.8125 C-223.24931211 88.53801192 -212.29473619 81.91774019 -202 74 C-200.52101818 72.91641433 -199.04186711 71.83305959 -197.5625 70.75 C-195.56379099 69.28226552 -193.82160868 67.8212483 -192.06640625 66.0625 C-189.9436957 63.94380213 -187.73596846 62.09771444 -185.375 60.25 C-184.59898437 59.63640625 -183.82296875 59.0228125 -183.0234375 58.390625 C-181 57 -181 57 -179 57 C-179 56.01 -179 55.02 -179 54 C-178.443125 53.773125 -177.88625 53.54625 -177.3125 53.3125 C-174.34760028 51.62971908 -172.383485 49.43891488 -170 47 C-168.23664369 45.45073772 -166.44826583 43.93633112 -164.6484375 42.4296875 C-163.0209462 41.01816661 -161.51863984 39.52682658 -160 38 C-155.31428571 34 -155.31428571 34 -153 34 C-152.773125 33.443125 -152.54625 32.88625 -152.3125 32.3125 C-148.74174398 26.02116796 -141.87822626 21.01512743 -136 17 C-135.01 17 -134.02 17 -133 17 C-133 16.34 -133 15.68 -133 15 C-131.23289901 13.76564939 -129.40980432 12.61073584 -127.5625 11.5 C-123.62163235 9.37758703 -123.62163235 9.37758703 -121 6 C-119.328125 5 -119.328125 5 -117.25 4 C-116.528125 3.649375 -115.80625 3.29875 -115.0625 2.9375 C-113 2 -113 2 -110.25 1 C-107.88949769 0.12235462 -107.88949769 0.12235462 -106.21875 -1.87109375 C-97.99324066 -9.76352788 -85.79007283 -11.38555423 -75 -13 C-74.06285156 -13.18304688 -73.12570312 -13.36609375 -72.16015625 -13.5546875 C-47.78038206 -16.9901563 -21.87426286 -10.8647001 0 0 Z " fill="#D8261C" transform="translate(549,266)"/>
		<path d="M0 0 C1.04590805 -0.00492462 1.04590805 -0.00492462 2.11294556 -0.00994873 C16.19077942 -0.03126568 31.81614786 0.33902138 44.8125 6.3125 C43.16852095 11.24443714 40.34875426 15.18840569 37.4375 19.4375 C33.01588777 25.97593466 28.6991146 32.56637591 24.5 39.25 C23.73937256 40.46067139 23.73937256 40.46067139 22.96337891 41.69580078 C22.00030547 43.23031259 21.03771256 44.76512613 20.07568359 46.30029297 C18.49919908 48.81157734 16.90788726 51.31318872 15.3125 53.8125 C12.09110418 58.86675896 8.88845941 63.93278426 5.6875 69 C5.18412109 69.79664062 4.68074219 70.59328125 4.16210938 71.4140625 C-1.31952747 80.02796354 -1.31952747 80.02796354 -6.625 88.75 C-9.02400277 92.68436454 -11.61446263 96.49041537 -14.1875 100.3125 C-14.5175 99.3225 -14.8475 98.3325 -15.1875 97.3125 C-13.7109375 94.74609375 -13.7109375 94.74609375 -11.5625 91.75 C-9.02084359 88.08018177 -6.66514145 84.53330143 -4.75 80.5 C-2.82607484 76.47552705 -0.64261622 72.67391974 1.6875 68.875 C8.22429441 58.18428911 14.16600381 47.14706852 20.22119141 36.1796875 C22.05619327 32.87341842 23.92262519 29.58764828 25.8125 26.3125 C-10.61215092 25.09284087 -49.96523025 28.41246604 -78.4375 53.8125 C-80.02920013 55.30361876 -81.61320686 56.80301481 -83.1875 58.3125 C-83.82558594 58.89902344 -84.46367187 59.48554687 -85.12109375 60.08984375 C-89.93292219 64.64446978 -93.49949786 69.83436648 -97.1875 75.3125 C-98.29019232 76.85522155 -99.39437683 78.39687755 -100.5 79.9375 C-105.35616339 86.8733208 -109.74676813 94.10715941 -114.1875 101.3125 C-114.8578125 102.39660156 -115.528125 103.48070313 -116.21875 104.59765625 C-117.83666498 107.22013729 -119.45032335 109.84514793 -121.06005859 112.47265625 C-121.88531515 113.81937202 -122.71125825 115.16566714 -123.53759766 116.51171875 C-125.00541951 118.90291961 -126.47163666 121.29509811 -127.9375 123.6875 C-128.39761475 124.43692871 -128.85772949 125.18635742 -129.33178711 125.95849609 C-131.65150395 129.74932503 -133.91958816 133.5592772 -136.11035156 137.42675781 C-138.42413811 141.47745755 -140.812944 145.48473854 -143.1875 149.5 C-143.7542041 150.45890137 -144.3209082 151.41780273 -144.90478516 152.40576172 C-149.2654158 159.77514278 -153.66435877 167.12094977 -158.07910156 174.45800781 C-160.73150509 178.87040084 -163.35689466 183.29524462 -165.9375 187.75 C-169.22945596 193.42168317 -172.64932438 199.00864931 -176.11181641 204.57763672 C-177.19884512 206.33079741 -178.2775439 208.08888622 -179.35546875 209.84765625 C-192.5509701 231.28012725 -206.4461593 252.645541 -222.1875 272.3125 C-225.87151532 276.99543488 -229.52781276 281.66123629 -232.8515625 286.609375 C-234.76663153 289.05080804 -236.97804325 291.13373015 -239.1875 293.3125 C-240.34339587 294.51085458 -241.49686533 295.71155241 -242.6484375 296.9140625 C-254.88666367 309.56639937 -271.81843938 327.05200745 -290.875 327.375 C-292.5146875 327.3440625 -292.5146875 327.3440625 -294.1875 327.3125 C-291.82994222 324.95494222 -290.00333546 324.43952947 -286.875 323.3125 C-269.69099171 316.25844409 -256.38828583 300.60447375 -245.1875 286.3125 C-244.61346436 285.61294189 -244.03942871 284.91338379 -243.44799805 284.19262695 C-238.12055818 277.66472945 -233.32559553 270.86421128 -228.625 263.875 C-227.90892578 262.81990234 -227.19285156 261.76480469 -226.45507812 260.67773438 C-220.24752286 251.4991381 -214.24206547 242.20253154 -208.5625 232.6875 C-208.17916504 232.04707764 -207.79583008 231.40665527 -207.40087891 230.74682617 C-204.99119892 226.7049637 -202.65739577 222.63046566 -200.40234375 218.5 C-199.02154756 216.01367888 -197.57440999 213.57196554 -196.125 211.125 C-192.27342619 204.5532002 -188.65341061 197.86142099 -185.02661133 191.16357422 C-181.21252371 184.13902495 -177.28027744 177.18862013 -173.3125 170.25 C-168.85004852 162.42939804 -164.68069112 154.62278572 -161.1875 146.3125 C-160.5275 146.3125 -159.8675 146.3125 -159.1875 146.3125 C-159.07535156 145.57515625 -158.96320313 144.8378125 -158.84765625 144.078125 C-158.16262458 141.20828819 -157.24031797 139.50968471 -155.625 137.0625 C-151.11035938 129.8346812 -147.7240392 122.04980151 -144.1875 114.3125 C-143.5275 114.3125 -142.8675 114.3125 -142.1875 114.3125 C-142.07881592 113.59860107 -141.97013184 112.88470215 -141.8581543 112.14916992 C-141.12451089 109.04607465 -139.98667861 106.72025838 -138.45703125 103.92578125 C-137.90080078 102.90419922 -137.34457031 101.88261719 -136.77148438 100.83007812 C-136.18689453 99.77240234 -135.60230469 98.71472656 -135 97.625 C-134.43474609 96.58666016 -133.86949219 95.54832031 -133.28710938 94.47851562 C-129.73818557 87.99451394 -126.03843658 81.62126382 -122.1875 75.3125 C-121.61902344 74.37277344 -121.05054688 73.43304688 -120.46484375 72.46484375 C-119.80162109 71.36849609 -119.80162109 71.36849609 -119.125 70.25 C-116.36989233 65.66300015 -113.75116611 61.00877331 -111.1875 56.3125 C-111.92871094 56.03792969 -112.66992188 55.76335938 -113.43359375 55.48046875 C-115.98909498 54.39664624 -117.98882924 53.21522607 -120.25 51.625 C-135.59175407 41.19362492 -152.15330319 34.34155747 -169.5625 28.1875 C-170.51382812 27.84074219 -171.46515625 27.49398438 -172.4453125 27.13671875 C-178.39357852 25.03874925 -184.1325222 23.65758277 -190.38525391 22.80908203 C-193.1875 22.3125 -193.1875 22.3125 -196.03662109 21.32666016 C-199.74522222 20.13298829 -203.39402777 19.61394601 -207.25 19.203125 C-208.41921997 19.07698822 -208.41921997 19.07698822 -209.61206055 18.94830322 C-218.23554347 18.09777903 -226.84203192 18.01075006 -235.50097656 18.05175781 C-238.18577639 18.06249311 -240.86990748 18.05177731 -243.5546875 18.0390625 C-259.65402831 18.0236892 -275.07953762 19.4262916 -290.75 23.25 C-291.83345703 23.50201172 -292.91691406 23.75402344 -294.03320312 24.01367188 C-312.05124221 28.28599042 -328.86143617 35.67350696 -345.1875 44.3125 C-345.86731934 44.67102051 -346.54713867 45.02954102 -347.24755859 45.39892578 C-359.65832586 52.00263289 -370.39956566 59.89144771 -381.2265625 68.87890625 C-383.1875 70.3125 -383.1875 70.3125 -385.1875 70.3125 C-385.1875 70.9725 -385.1875 71.6325 -385.1875 72.3125 C-386.41015625 73.51171875 -386.41015625 73.51171875 -388.25 75 C-392.60756359 78.71171042 -396.68922846 82.65782242 -400.75 86.6875 C-401.37463135 87.29940186 -401.9992627 87.91130371 -402.64282227 88.54174805 C-406.05156959 91.94244639 -408.79068494 95.23202115 -411.4296875 99.265625 C-413.46845191 101.94034213 -414.4783326 103.12933711 -417.76049805 103.97705078 C-420.80219356 104.0925156 -423.71720422 103.94286088 -426.75 103.6875 C-428.89538492 103.5944765 -431.04127271 103.51238693 -433.1875 103.44140625 C-434.21875 103.40418457 -435.25 103.36696289 -436.3125 103.32861328 C-443.62502052 103.28762939 -450.71253226 105.08769445 -457.375 108.0625 C-460.1875 109.3125 -460.1875 109.3125 -463.1875 108.3125 C-453.9992028 95.41202542 -444.64078359 83.28410344 -433.1875 72.3125 C-430.71219197 69.8563507 -428.2574108 67.38449424 -425.828125 64.8828125 C-425.03921875 64.07585937 -424.2503125 63.26890625 -423.4375 62.4375 C-422.65890625 61.63570312 -421.8803125 60.83390625 -421.078125 60.0078125 C-414.57005899 53.93948068 -407.28540027 48.86695745 -399.9375 43.875 C-399.11048584 43.31224365 -398.28347168 42.7494873 -397.43139648 42.16967773 C-378.95489286 29.66595741 -359.75392438 19.88504241 -338.45703125 13.0546875 C-336.84059753 12.5260775 -335.23457036 11.96518414 -333.63671875 11.3828125 C-306.7021852 1.7713192 -277.5012821 0.41066232 -249.1875 1.3125 C-248.14384277 1.3444043 -247.10018555 1.37630859 -246.02490234 1.40917969 C-213.82052357 2.64314475 -181.45815307 11.98733117 -153.1875 27.3125 C-152.11113281 27.86292969 -151.03476562 28.41335937 -149.92578125 28.98046875 C-135.53431043 36.43287861 -122.25146468 45.76814546 -109.1875 55.3125 C-108.95546875 54.61898437 -108.7234375 53.92546875 -108.484375 53.2109375 C-106.92459515 49.72492349 -104.79231979 46.90905831 -102.4375 43.9375 C-102.01984375 43.39867187 -101.6021875 42.85984375 -101.171875 42.3046875 C-99.86099696 40.62612415 -98.52670387 38.96852534 -97.1875 37.3125 C-96.73270264 36.73153564 -96.27790527 36.15057129 -95.80932617 35.55200195 C-92.06377584 30.93030694 -87.89906416 27.59374461 -83 24.25 C-82.24533447 23.72905762 -81.49066895 23.20811523 -80.71313477 22.67138672 C-56.45493022 6.11885155 -29.06894723 0.11240262 0 0 Z " fill="#0B4C7E" transform="translate(505.1875,-0.3125)"/>







		<path d="M0 0 C0.66 0.99 1.32 1.98 2 3 C1.68248779 3.51908936 1.36497559 4.03817871 1.0378418 4.57299805 C-0.41248865 6.94436636 -1.86249702 9.31593144 -3.3125 11.6875 C-3.81201172 12.50412109 -4.31152344 13.32074219 -4.82617188 14.16210938 C-7.75983091 18.96042392 -7.75983091 18.96042392 -10.65625 23.78125 C-12.10359603 26.17105391 -13.62980911 28.49327134 -15.1875 30.8125 C-15.71730469 31.60269531 -16.24710937 32.39289063 -16.79296875 33.20703125 C-17.19128906 33.79871094 -17.58960938 34.39039063 -18 35 C-18.495 33.515 -18.495 33.515 -19 32 C-17.5234375 29.43359375 -17.5234375 29.43359375 -15.375 26.4375 C-12.2313592 21.90214322 -9.59636558 17.44278566 -7.23046875 12.46875 C-5.08321927 8.16061772 -2.53235605 4.09005959 0 0 Z " fill="#034A81" transform="translate(509,65)"/>
		<path d="M0 0 C0.99 0 1.98 0 3 0 C2.46411411 4.91698811 0.21674849 8.27920534 -2.4375 12.3125 C-2.84548828 12.95767578 -3.25347656 13.60285156 -3.67382812 14.26757812 C-4.72313296 15.88518508 -5.85558941 17.44822124 -7 19 C-7.66 19 -8.32 19 -9 19 C-8.42334609 14.2128572 -6.35917004 10.74871176 -3.9375 6.6875 C-3.56044922 6.04232422 -3.18339844 5.39714844 -2.79492188 4.73242188 C-1.86962507 3.15121848 -0.93567319 1.5750854 0 0 Z " fill="#034A81" transform="translate(519,48)"/>
		<path d="M0 0 C0.33 0.99 0.66 1.98 1 3 C-7.58 11.58 -16.16 20.16 -25 29 C-25.66 28.67 -26.32 28.34 -27 28 C-18.89453125 19.89453125 -18.89453125 19.89453125 -17.43432617 18.43457031 C-16.05199736 17.05200621 -14.67051332 15.66859764 -13.2890625 14.28515625 C-11.72323477 12.72200058 -10.14717672 11.16904399 -8.5625 9.625 C-5.55153101 6.54059275 -2.7685499 3.30132927 0 0 Z " fill="#F3C9BF" transform="translate(555,269)"/>

		<path d="M0 0 C2.98965642 0.59850402 4.99778498 1.48912049 7.453125 3.28515625 C8.071875 3.73310547 8.690625 4.18105469 9.328125 4.64257812 C9.96234375 5.11115234 10.5965625 5.57972656 11.25 6.0625 C11.8996875 6.53494141 12.549375 7.00738281 13.21875 7.49414062 C14.81653662 8.65723529 16.40881803 9.82788601 18 11 C17.01 12.485 17.01 12.485 16 14 C16 13.34 16 12.68 16 12 C14.90751953 11.59974609 14.90751953 11.59974609 13.79296875 11.19140625 C11.02972021 10.01267785 8.77913082 8.64194609 6.3125 6.9375 C3.24499911 4.8177976 3.24499911 4.8177976 0 3 C0 2.01 0 1.02 0 0 Z " fill="#3A5A6D" transform="translate(378,44)"/>

		<path d="M0 0 C0.66 0.33 1.32 0.66 2 1 C1.50072998 1.46897705 1.00145996 1.9379541 0.48706055 2.42114258 C-1.779924 4.55110144 -4.04621889 6.6817927 -6.3125 8.8125 C-7.49102539 9.91948242 -7.49102539 9.91948242 -8.69335938 11.04882812 C-9.45068359 11.76103516 -10.20800781 12.47324219 -10.98828125 13.20703125 C-11.68477783 13.8616333 -12.38127441 14.51623535 -13.09887695 15.19067383 C-14.75847489 16.77013708 -16.38891345 18.37128186 -18 20 C-18.66 19.67 -19.32 19.34 -20 19 C-16.56658612 14.27905591 -12.4142623 10.75529868 -8 7 C-6.49810284 5.68967135 -4.99802388 4.377255 -3.5 3.0625 C-2.33333333 2.04166667 -1.16666667 1.02083333 0 0 Z " fill="#3D6985" transform="translate(435,174)"/>
		<path d="M0 0 C1.81612488 0.95144598 3.62781081 1.91136933 5.4375 2.875 C6.44683594 3.40867188 7.45617187 3.94234375 8.49609375 4.4921875 C11 6 11 6 12 8 C11.34 8.66 10.68 9.32 10 10 C6.37 8.02 2.74 6.04 -1 4 C-0.67 2.68 -0.34 1.36 0 0 Z " fill="#225476" transform="translate(367,36)"/>


		<path d="M0 0 C0.33 0.99 0.66 1.98 1 3 C-2.96 7.29 -6.92 11.58 -11 16 C-11.66 15.67 -12.32 15.34 -13 15 C-12.39671875 14.33613281 -11.7934375 13.67226563 -11.171875 12.98828125 C-10.37265625 12.10527344 -9.5734375 11.22226562 -8.75 10.3125 C-7.96109375 9.44238281 -7.1721875 8.57226562 -6.359375 7.67578125 C-4.15500436 5.17579137 -2.05866059 2.62054272 0 0 Z " fill="#034A81" transform="translate(260,286)"/>
		<path d="M0 0 C0.5775 0.226875 1.155 0.45375 1.75 0.6875 C0.945625 1.14125 0.14125 1.595 -0.6875 2.0625 C-3.33856572 3.43475665 -3.33856572 3.43475665 -4.25 5.6875 C-6.53515625 6.7578125 -6.53515625 6.7578125 -9.3125 7.8125 C-10.23160156 8.16570312 -11.15070313 8.51890625 -12.09765625 8.8828125 C-12.80792969 9.14835937 -13.51820313 9.41390625 -14.25 9.6875 C-13.92 8.6975 -13.59 7.7075 -13.25 6.6875 C-9.6875 5.5 -9.6875 5.5 -6.25 4.6875 C-6.25 4.0275 -6.25 3.3675 -6.25 2.6875 C-3.02697842 -0.42041367 -3.02697842 -0.42041367 0 0 Z " fill="#BC5149" transform="translate(446.25,373.3125)"/>
		<path d="M0 0 C0.99 0 1.98 0 3 0 C2.4739075 3.78786597 1.61896089 6.17152224 -1 9 C-1.66 9 -2.32 9 -3 9 C-2.5020163 5.26512223 -2.12508244 3.18762365 0 0 Z " fill="#2A536A" transform="translate(519,48)"/>
		<path d="M0 0 C2.475 0.99 2.475 0.99 5 2 C3.61918777 6.1424367 1.40174442 7.32203099 -2 10 C-1.34 6.7 -0.68 3.4 0 0 Z " fill="#BB4F4D" transform="translate(550,267)"/>

		<path d="M0 0 C0 3.83764027 -1.26535335 5.11486085 -3.5 8.1875 C-4.1496875 9.08855469 -4.799375 9.98960938 -5.46875 10.91796875 C-5.9740625 11.60503906 -6.479375 12.29210937 -7 13 C-7.33 12.01 -7.66 11.02 -8 10 C-6.85546875 7.7734375 -6.85546875 7.7734375 -5.1875 5.375 C-4.64480469 4.57835938 -4.10210937 3.78171875 -3.54296875 2.9609375 C-2 1 -2 1 0 0 Z " fill="#034A81" transform="translate(498,87)"/>
		<path d="M0 0 C0.66 0.33 1.32 0.66 2 1 C1.67 1.99 1.34 2.98 1 4 C-2.47325181 5.1577506 -5.36067448 5.06866652 -9 5 C-6.32239719 2.32239719 -3.52050129 1.32018799 0 0 Z " fill="#034A81" transform="translate(220,322)"/>

		<path d="M0 0 C0.66 0.99 1.32 1.98 2 3 C0.02 5.64 -1.96 8.28 -4 11 C-4 7.80389448 -3.45328458 6.58282374 -2 3.8125 C-1.62875 3.09707031 -1.2575 2.38164063 -0.875 1.64453125 C-0.441875 0.83048828 -0.441875 0.83048828 0 0 Z " fill="#034A81" transform="translate(502,77)"/>


		<path d="M0 0 C4.7517398 0.43197635 6.92000054 1.32769295 10 5 C9.34 5.66 8.68 6.32 8 7 C8 6.34 8 5.68 8 5 C6.8553125 4.5978125 6.8553125 4.5978125 5.6875 4.1875 C3.12619116 3.05575888 1.80307062 2.08776599 0 0 Z " fill="#034A81" transform="translate(386,51)"/>
		<path d="M0 0 C0.66 0.33 1.32 0.66 2 1 C-0.31 3.31 -2.62 5.62 -5 8 C-5.66 7.67 -6.32 7.34 -7 7 C-4.78071806 4.09197539 -3.07030857 2.04687238 0 0 Z " fill="#36627E" transform="translate(422,186)"/>
	</g>
</svg>