<svg xmlns="http://www.w3.org/2000/svg" width="281" height="281" viewBox="0 0 281 44" fill="none" class="svg replaced-svg">
<path fill-rule="evenodd" clip-rule="evenodd" d="M46.3042 0H48.3072C49.1009 0.0658001 49.8823 0.1974 50.6698 0.329001C48.6359 3.39768 46.6081 6.46636 44.5555 9.52307C45.864 7.19614 47.253 4.91706 48.58 2.6021C45.6407 2.33291 42.5712 2.94904 40.1279 4.59405C38.8133 5.46739 37.9266 6.78339 37.046 8.03958C34.5904 11.6885 32.4386 15.5169 30.045 19.2017C28.3334 21.8456 26.5599 24.4717 24.3771 26.7807C23.292 27.8753 22.1075 28.982 20.6007 29.4964C19.2798 29.8673 17.897 29.8613 16.5389 30.0108C17.8536 29.7716 19.2674 29.8314 20.4767 29.2093C22.3432 28.1864 23.6826 26.4995 24.9476 24.8665C29.4558 18.7411 32.4944 11.7603 36.5251 5.35374C31.7627 2.18337 25.636 1.00495 19.993 2.26711C15.3111 3.27206 11.082 5.93397 8.09925 9.54102C6.58618 9.36156 5.04831 9.55896 3.64066 10.1033C5.5568 7.35167 8.08065 4.98885 11.0572 3.31393C15.1003 1.00495 19.9185 0 24.6004 0.454619C28.9784 0.84942 33.2013 2.56621 36.6057 5.24606C38.5653 1.95606 42.5216 0.311055 46.3042 0Z" fill="#005A9C"></path>
<path fill-rule="evenodd" clip-rule="evenodd" d="M1.67935 13.5234C0.0174594 17.3996 -0.441422 21.7544 0.439134 25.8699C1.28248 30.0751 3.50248 33.9932 6.62783 37.026C12.4445 42.936 22.0128 44.928 29.8882 42.0866C33.708 40.6988 37.2613 38.4556 39.7789 35.3271C35.897 37.02 31.5067 37.5045 27.3023 36.8764C19.706 35.7459 12.4631 31.3851 8.74241 24.8051C7.21074 22.0176 6.00152 18.7036 7.04951 15.5632C7.62001 14.0498 8.38895 12.2851 10.1315 11.7468C8.60599 11.1964 6.96269 10.8076 5.3256 11.0529C3.80633 11.2622 2.34287 12.1595 1.67935 13.5234Z" fill="#005A9C"></path>
<path fill-rule="evenodd" clip-rule="evenodd" d="M44.1975 14.5419C42.9449 14.6854 41.6489 14.9785 40.6381 15.7382C38.9018 16.9944 37.4879 18.5975 36.1113 20.2007C33.8417 22.9403 31.448 25.5783 29.0668 28.2283C27.932 29.4546 26.6608 30.6749 25.0051 31.2132C22.8533 31.9011 20.5279 31.8652 18.3203 31.4465C19.7528 32.3378 21.1852 33.247 22.7417 33.935C25.5322 34.2759 28.3475 33.4385 30.6791 31.9849C34.2633 29.8434 36.8864 26.5175 40.5327 24.4597C41.7233 23.712 43.0255 23.0839 44.4518 22.9045C46.6221 20.2784 48.6809 17.5746 50.7273 14.8649C48.5755 14.5239 46.3741 14.3145 44.1975 14.5419Z" fill="#005A9C"></path>
<path fill-rule="evenodd" clip-rule="evenodd" d="M44.4849 22.9112C46.5995 22.6001 48.7699 23.0368 50.7046 23.8743C48.2924 26.9729 45.8616 30.0774 43.0649 32.871C40.7456 35.2338 37.2544 36.0712 33.9864 36.1909C30.1418 36.2806 26.2475 35.5388 22.7687 33.9417C25.5591 34.2827 28.3744 33.4452 30.7061 31.9916C34.2903 29.8501 36.9134 26.5242 40.5596 24.4665C41.7564 23.7187 43.0587 23.0847 44.4849 22.9112Z" fill="#FD4236"></path>
<path fill-rule="evenodd" clip-rule="evenodd" d="M60.7266 40V0H61.7266V40H60.7266Z" fill="#005A9C"></path>
<path fill-rule="evenodd" clip-rule="evenodd" d="M75.1526 0.00688791C80.6283 -1.47826e-07 86.1078 0.00344415 91.5834 0.00344415C91.3616 1.65658 91.1397 3.31316 90.9178 4.96974C89.0637 4.96974 87.2059 4.96974 85.3518 4.96974C84.7012 9.56063 84.0506 14.1515 83.4 18.7424C81.1473 18.7424 78.8908 18.7424 76.6344 18.7424C77.285 14.1515 77.9356 9.56063 78.5862 4.96974C76.2997 4.96629 74.0131 4.97318 71.7266 4.96629C72.8548 3.30971 74.0169 1.66691 75.1526 0.00688791ZM93.6331 0.0206639C93.0539 4.88364 92.4785 9.75005 91.9031 14.613C91.7527 15.9941 91.5045 17.3682 91.3051 18.7424C93.5879 18.7424 95.867 18.7424 98.1497 18.7424C98.3227 17.568 98.4882 16.3901 98.6612 15.2157C100.858 15.2123 103.054 15.2226 105.25 15.2088C107.24 15.1813 109.225 13.8106 109.481 11.9508C109.876 9.01991 110.274 6.08905 110.662 3.15473C110.839 2.01476 110.109 0.840344 108.962 0.375399C108.33 0.0861009 107.612 0.0172203 106.909 0.0309964C102.486 0.0275524 98.0595 0.024108 93.6331 0.0206639ZM100.105 4.97318C101.294 4.97318 102.482 4.97318 103.671 4.97318C103.43 6.53677 103.197 8.10036 102.956 9.66051C102.941 9.96702 102.674 10.2563 102.324 10.2425C101.324 10.2632 100.327 10.2425 99.3269 10.246C99.5901 8.48953 99.8346 6.72964 100.105 4.97318ZM115.75 1.02632C115.98 0.365067 116.739 -0.0206641 117.476 0.00344415C120.726 0.00688818 123.979 -1.47826e-07 127.228 0.00688791C127.852 -0.0275524 128.526 0.354735 128.537 0.974661C129.259 6.89839 129.973 12.8221 130.692 18.7424C128.379 18.7424 126.066 18.7424 123.753 18.7424C123.629 17.6575 123.509 16.5727 123.385 15.4844C121.188 15.5016 118.988 15.5326 116.788 15.5532C116.389 16.6037 116.028 17.6713 115.611 18.7183C114.848 18.646 114.077 18.7045 113.313 18.6873C111.779 18.7011 110.248 18.6598 108.718 18.708C111.034 12.8049 113.411 6.91906 115.75 1.02632ZM120.842 5.64132C120.139 7.35989 119.436 9.08191 118.736 10.8005C120.098 10.8005 121.459 10.8005 122.82 10.8005C122.617 9.08191 122.403 7.36334 122.196 5.64132C121.745 5.64132 121.294 5.64132 120.842 5.64132ZM135.081 0.00344415C137.36 0.00344415 139.635 0.00344415 141.914 0.00344415C141.575 2.35227 141.244 4.70455 140.91 7.05337C142.196 7.05682 143.482 7.05337 144.768 7.05682C145.111 4.70455 145.438 2.35227 145.776 0C148.179 0.00344403 150.586 -0.00344391 152.989 0.00344415C152.113 6.24747 151.248 12.4949 150.372 18.739C147.969 18.739 145.569 18.739 143.166 18.739C143.478 16.5176 143.798 14.2962 144.11 12.0748C142.824 12.0748 141.534 12.0748 140.248 12.0748C139.932 14.2962 139.616 16.5176 139.304 18.739C137.029 18.739 134.75 18.739 132.471 18.739C133.339 12.4984 134.212 6.25092 135.081 0.00344415ZM174.655 0.00344415C176.93 0.00688818 179.206 0.00344415 181.481 0.00344415C181.15 2.35572 180.812 4.70455 180.481 7.05682C181.767 7.05682 183.057 7.05682 184.343 7.05682C184.681 4.70455 185.009 2.35227 185.351 0C187.754 0.00344403 190.157 1.21157e-07 192.56 0.00344415C191.688 6.25092 190.819 12.4949 189.946 18.7424C187.543 18.7424 185.14 18.7424 182.737 18.7424C183.057 16.521 183.369 14.2996 183.685 12.0817C182.395 12.0817 181.109 12.0817 179.819 12.0817C179.503 14.3031 179.187 16.5245 178.871 18.7459C176.596 18.7459 174.317 18.7459 172.038 18.7459C172.914 12.4984 173.783 6.24747 174.655 0.00344415ZM242.808 0.00344415C249.562 0.00344415 256.313 1.21157e-07 263.067 0.00344415C261.969 1.66002 260.871 3.3166 259.776 4.96974C258.148 4.96974 256.52 4.96974 254.895 4.96974C254.237 9.56063 253.59 14.1515 252.939 18.7424C250.683 18.7459 248.426 18.7424 246.174 18.7424C246.821 14.1515 247.475 9.56063 248.122 4.96974C246.125 4.96974 244.135 4.96974 242.138 4.96974C242.36 3.3166 242.582 1.66002 242.808 0.00344415ZM264.15 0.00344415C263.274 6.23714 262.394 12.4674 261.552 18.7045C262.578 18.6598 263.609 18.7011 264.639 18.6873C268.159 18.708 271.683 18.6494 275.207 18.7183C276.644 18.615 278.042 17.8711 278.746 16.7035C279.19 16.001 279.205 15.1675 279.329 14.3823C279.678 11.9508 279.991 9.51241 280.363 7.08437V6.50577C280.261 5.53456 279.573 4.65288 278.61 4.24305C277.689 3.8091 276.625 3.8952 275.628 3.89175C273.891 3.89175 272.157 3.89175 270.419 3.89175C270.611 2.5968 270.807 1.30184 270.999 0.00688791C268.716 0.00344388 266.433 0.00344415 264.15 0.00344415ZM269.032 13.7933C269.272 12.1505 269.513 10.5077 269.754 8.86493C270.935 8.86493 272.116 8.86493 273.296 8.86493C273.063 10.3114 272.898 11.7683 272.593 13.201C272.522 13.4214 272.477 13.814 272.138 13.783C271.104 13.8071 270.07 13.7865 269.032 13.7933ZM154.546 4.15694C154.054 7.51832 153.599 10.8831 153.113 14.248C152.959 15.1055 153.027 16.0182 153.501 16.7862C154.212 18.0123 155.701 18.7217 157.183 18.8182H165.475C167.754 18.5633 169.943 17.0858 170.477 14.9815C170.703 13.8691 170.782 12.7395 170.951 11.6202C168.679 11.6202 166.412 11.6202 164.144 11.6202C164.042 12.2298 163.941 12.8393 163.847 13.4489C162.553 13.4558 161.263 13.4455 159.973 13.4558C160.375 10.6386 160.838 7.82828 161.237 5.01106C162.549 5.02484 163.862 5.02828 165.174 5.03862C165.076 5.64821 164.982 6.26125 164.885 6.87428C167.149 6.87428 169.409 6.87428 171.677 6.87428C171.816 5.72053 172.004 4.56678 172.128 3.40959C172.214 2.56925 171.887 1.68069 171.18 1.1262C170.153 0.313407 168.739 0.0792127 167.419 0.0826567C164.918 0.0929888 162.414 0.0688804 159.913 0.0929886C157.42 0.165313 154.945 1.83911 154.546 4.15694ZM194.847 0.0826567C193.978 6.32668 193.105 12.5707 192.237 18.8147H208.942C209.164 17.1788 209.386 15.5395 209.604 13.9036C206.31 13.9001 203.015 13.9036 199.721 13.9036C199.837 13.1252 199.958 12.3503 200.078 11.5719C203.365 11.5651 206.648 11.5409 209.931 11.5409C210.13 10.1255 210.33 8.7134 210.529 7.2979C207.242 7.30134 203.952 7.3289 200.665 7.3289C200.781 6.55055 200.902 5.77564 201.022 4.99729C204.313 4.99729 207.599 4.99729 210.89 4.99729C211.112 3.35793 211.334 1.72202 211.552 0.0826567C205.986 0.0826567 200.416 0.0826567 194.847 0.0826567ZM213.508 2.18007C214.26 0.864452 215.884 0.0654363 217.49 0.0929886C223.613 0.0964326 229.732 0.0895447 235.85 0.0964327C236.952 0.110209 238.144 4.87674e-08 239.137 0.533825C240.205 1.04354 240.822 2.18352 240.649 3.26838C240.266 6.16481 239.874 9.0578 239.487 11.9508C239.269 13.8243 237.291 15.2329 235.294 15.2743C233.079 15.2881 230.864 15.2743 228.652 15.2777C228.483 16.4556 228.306 17.6334 228.141 18.8113H221.285C221.488 17.6334 221.65 16.4487 221.834 15.2674C219.739 15.2674 217.645 15.2674 215.55 15.2674C214.903 15.2674 214.245 15.1916 213.662 14.923C212.718 14.5166 212 13.659 211.909 12.6981C211.853 12.0369 212.018 11.3825 212.097 10.7247C212.402 8.51709 212.71 6.30946 213.015 4.10184C213.098 3.45436 213.154 2.769 213.508 2.18007ZM218.953 10.3045C220.13 10.3045 221.308 10.3045 222.485 10.3045C222.789 8.55153 223.045 6.79163 223.244 5.02828C222.056 5.02828 220.867 5.02828 219.683 5.02828C219.438 6.78818 219.194 8.54464 218.953 10.3045ZM229.318 10.3149C230.341 10.308 231.364 10.3286 232.387 10.308C232.714 10.3286 232.936 10.0497 232.94 9.77071C233.18 8.19335 233.417 6.61943 233.658 5.0455C232.466 5.0455 231.277 5.0455 230.089 5.0455C229.829 6.79852 229.574 8.55842 229.318 10.3149Z" fill="#005A9C"></path>
<path d="M81.2834 34.998C81.3254 34.5788 81.0739 34.2854 80.6966 34.2854H75.1637L74.8703 36.8842H80.4451C80.8224 36.8842 81.1577 36.5489 81.1996 36.1297L81.2834 34.998ZM81.9541 29.507C81.996 29.0878 81.7445 28.7525 81.3673 28.7525H75.7924L75.499 31.3094H81.0739C81.4511 31.3094 81.7864 30.974 81.8284 30.5968L81.9541 29.507ZM82.6667 32.7764C83.5888 32.8603 84.2595 33.6986 84.1337 34.6627L83.8403 37.2196C83.6727 38.6447 82.4152 39.7764 81.0739 39.7764H71.7266L73.3613 25.8184H82.7505C84.0918 25.8184 85.0559 26.9501 84.8882 28.4172L84.5948 30.9321C84.4691 31.9381 83.6308 32.7345 82.6667 32.7764Z" fill="#005A9C"></path>
<path d="M150.81 32.8184C150.81 32.9441 150.81 33.0699 150.852 33.1537L153.744 39.8184H150.517L148.128 34.2854H144.984L144.355 39.8184H141.547L143.182 25.8184H145.99L145.361 31.3513H148.505L152.194 25.8184H155.421L150.936 32.483C150.894 32.6088 150.852 32.6926 150.81 32.8184Z" fill="#005A9C"></path>
<path d="M137.207 34.8303L137.123 35.4591L137.039 36.004C136.997 36.4651 136.578 36.8842 136.117 36.8842H131.506C131.045 36.8842 130.71 36.4651 130.794 36.004L131.548 29.6746C131.59 29.1717 132.009 28.7944 132.47 28.7944H137.081C137.542 28.7944 137.878 29.1717 137.794 29.6746L137.668 30.8064L137.207 34.8303ZM137.919 25.8184H132.303C130.584 25.8184 128.991 27.2854 128.782 29.1297L127.943 36.4651C127.734 38.2675 128.949 39.7764 130.668 39.7764H136.285C138.003 39.7764 139.596 38.2675 139.806 36.4651L139.931 35.4172L140.015 34.7884L140.476 30.7226L140.686 29.0878C140.896 27.2854 139.638 25.8184 137.919 25.8184Z" fill="#005A9C"></path>
<path d="M95.3045 34.8303L95.2207 35.4591L95.1369 36.004C95.095 36.4651 94.6758 36.8842 94.2147 36.8842H89.6039C89.1429 36.8842 88.8075 36.4651 88.8914 36.004L89.6459 29.6746C89.6878 29.1717 90.1069 28.7944 90.568 28.7944H95.1788C95.6399 28.7944 95.9752 29.1717 95.8914 29.6746L95.7656 30.8064L95.3045 34.8303ZM96.0171 25.8184H90.4004C88.6818 25.8184 87.089 27.2854 86.8794 29.1297L86.0411 36.4651C85.8315 38.2675 87.0471 39.7764 88.7656 39.7764H94.3824C96.101 39.7764 97.6938 38.2675 97.9033 36.4651L98.0291 35.4172L98.1129 34.7884L98.574 30.7226L98.7836 29.0878C98.9932 27.2854 97.7357 25.8184 96.0171 25.8184Z" fill="#005A9C"></path>
<path d="M112.641 34.7884L112.431 36.4651C112.222 38.2675 110.545 39.7764 108.743 39.7764H102.832C101.03 39.7764 99.7306 38.2675 99.9401 36.4651L100.862 29.1297C101.072 27.2854 102.749 25.8184 104.551 25.8184H110.461C112.264 25.8184 113.563 27.2854 113.353 29.1297L113.144 30.7645H110.168L110.293 29.6327C110.335 29.1297 110.042 28.7525 109.539 28.7525H104.719C104.258 28.7525 103.796 29.1297 103.713 29.6327L102.958 35.9202C102.916 36.3812 103.252 36.8004 103.713 36.8004H108.533C109.036 36.8004 109.455 36.3812 109.539 35.9202L109.665 34.7465H112.641V34.7884Z" fill="#005A9C"></path>
<path d="M122.599 28.7525L121.258 39.8184H118.282L119.665 28.7525H114.887L115.222 25.8184H127.755L127.378 28.7525H122.599Z" fill="#005A9C"></path>
</svg>